<svg width="60" height="52" viewBox="0 0 60 52" fill="none" xmlns="http://www.w3.org/2000/svg">
<path d="M57.2727 28.6364C56.4545 28.6364 55.9091 29.1819 55.9091 30V47.7273C55.9091 48.5455 55.3636 49.0909 54.5455 49.0909H5.45449C4.63629 49.0909 4.0909 48.5454 4.0909 47.7273V30C4.0909 29.1818 3.54539 28.6364 2.7273 28.6364C1.90922 28.6364 1.36371 29.1819 1.36371 30V47.7273C1.36371 50.0455 3.1364 51.8182 5.45461 51.8182H54.5455C56.8637 51.8182 58.6364 50.0455 58.6364 47.7273V30C58.6364 29.1818 58.0909 28.6364 57.2727 28.6364Z" fill="#335564"/>
<path d="M55.9091 9.54551H4.0909C1.7727 9.54551 0 11.3182 0 13.6364V22.3637C0 24.2727 1.36359 25.9091 3.13641 26.3182L24.5455 31.0909V35.4545C24.5455 36.2727 25.091 36.8181 25.9091 36.8181H34.0909C34.9091 36.8181 35.4545 36.2726 35.4545 35.4545V31.0909L56.8636 26.3182C58.6364 25.9091 60 24.2727 60 22.3636V13.6363C60 11.3182 58.2273 9.54551 55.9091 9.54551ZM32.7273 34.0909H27.2728V28.6364H32.7273V34.0909ZM57.2727 22.3636C57.2727 23.0454 56.8636 23.5909 56.1818 23.7272L35.4545 28.3636V27.2727C35.4545 26.4545 34.909 25.9091 34.0909 25.9091H25.9091C25.0909 25.9091 24.5455 26.4546 24.5455 27.2727V28.3636L3.8182 23.7273C3.13641 23.5909 2.7273 23.0455 2.7273 22.3637V13.6364C2.7273 12.8182 3.27281 12.2728 4.0909 12.2728H55.9091C56.7273 12.2728 57.2727 12.8183 57.2727 13.6364V22.3636Z" fill="#335564"/>
<path d="M36.8182 0H23.1818C20.8636 0 19.0909 1.7727 19.0909 4.0909V5.45449C19.0909 6.2727 19.6364 6.81809 20.4545 6.81809C21.2726 6.81809 21.8181 6.27258 21.8181 5.45449V4.0909C21.8181 3.2727 22.3636 2.7273 23.1817 2.7273H36.8181C37.6363 2.7273 38.1817 3.27281 38.1817 4.0909V5.45449C38.1817 6.2727 38.7272 6.81809 39.5453 6.81809C40.3635 6.81809 40.9088 6.27258 40.9088 5.45449V4.0909C40.9091 1.7727 39.1364 0 36.8182 0Z" fill="#335564"/>
</svg>
